#!OML:ASF E:\inclinewalkrobotboard\Project 1\Capture day 1\Session 1\subject1.ASF
:FULLY-SPECIFIED
:DEGREES
207
root 7.89488 20.3788 16.1236 -166.779 1.20155 177.655
lowerback 4.32064 0.948523 -3.56517
upperback 3.69613 1.37825 2.47393
thorax 1.2497 0.68892 4.51482
lowerneck -8.15659 0.204806 -3.33665
upperneck 24.0206 -1.32605 2.68657
head 8.86207 -1.19672 1.26283
rclavicle 2.38542e-015 2.38542e-015
rhumerus -28.0671 -21.1301 -75.9867
rradius 29.3182
rwrist 8.48065
rhand -16.5354 -38.5925
rfingers 7.12502
rthumb 9.68364 -68.3499
lclavicle 2.38542e-015 2.38542e-015
lhumerus -32.1277 17.495 76.1174
lradius 14.2252
lwrist -35.2571
lhand -25.0618 -22.1868
lfingers 7.12502
lthumb 1.4519 7.78804
rfemur -29.641 2.77524 19.2391
rtibia 24.8742
rfoot -22.0295 0.163954
rtoes -21.1697
lfemur -28.628 0.23221 -23.4862
ltibia 59.1023
lfoot -8.39725 5.36747
ltoes -46.9769
208
root 7.93107 20.4185 15.9225 -167.12 1.36215 177.837
lowerback 4.50441 1.21558 -3.46807
upperback 3.71771 1.73564 2.36797
thorax 1.13723 0.874488 4.33177
lowerneck -7.86488 0.0494687 -3.43359
upperneck 24.067 -1.64345 2.96525
head 8.83654 -1.34054 1.34219
rclavicle -1.55052e-014 -2.78299e-014
rhumerus -26.936 -19.4687 -77.5166
rradius 30.9971
rwrist 6.65083
rhand -16.3112 -37.324
rfingers 7.12502
rthumb 9.89991 -67.0712
lclavicle -1.55052e-014 -2.78299e-014
lhumerus -32.5986 17.3465 75.5267
lradius 14.5187
lwrist -33.7899
lhand -25.1004 -22.5749
lfingers 7.12502
lthumb 1.41464 7.40011
rfemur -27.8986 3.0721 19.6438
rtibia 23.8712
rfoot -22.1409 0.203327
rtoes -20.9895
lfemur -31.3383 0.225322 -23.2325
ltibia 59.5628
lfoot -11.5168 5.8893
ltoes -48.5479
209
root 7.9633 20.4485 15.7199 -167.385 1.37045 178.169
lowerback 4.56468 1.39745 -3.19149
upperback 3.74867 1.99173 2.37195
thorax 1.11731 1.01069 4.16779
lowerneck -7.86914 -0.0541625 -3.57846
upperneck 24.3282 -1.85148 3.12247
head 8.93734 -1.44904 1.39881
rclavicle 1.03368e-014 7.95139e-015
rhumerus -25.8018 -17.8818 -78.8322
rradius 32.728
rwrist 5.44335
rhand -16.3681 -38.8504
rfingers 7.12502
rthumb 9.84501 -68.6002
lclavicle 1.03368e-014 7.95139e-015
lhumerus -32.9749 17.8082 74.8888
lradius 14.6737
lwrist -32.9384
lhand -24.9604 -22.5266
lfingers 7.12502
lthumb 1.54979 7.44756
rfemur -26.2269 3.25332 20.2829
rtibia 22.8933
rfoot -22.2729 0.0866684
rtoes -20.3645
lfemur -34.1326 -0.0310191 -22.7425
ltibia 59.7438
lfoot -13.6039 6.4692
ltoes -48.3172
210
root 7.99122 20.4677 15.5169 -167.661 1.36983 178.436
lowerback 4.5504 1.46613 -2.99999
upperback 3.87979 2.10399 2.41064
thorax 1.25468 1.07136 4.09851
lowerneck -9.21148 0.201923 -3.01474
upperneck 25.501 -1.45751 2.45116
head 9.58176 -1.29005 1.10784
rclavicle -2.82274e-014 -3.18055e-014
rhumerus -24.4447 -16.0694 -80.0809
rradius 34.2036
rwrist 4.47908
rhand -15.9042 -38.5828
rfingers 7.12502
rthumb 10.2926 -68.311
lclavicle -2.82274e-014 -3.18055e-014
lhumerus -33.2065 18.7226 74.2783
lradius 14.8011
lwrist -32.293
lhand -24.7764 -22.6824
lfingers 7.12502
lthumb 1.72756 7.29037
rfemur -24.6031 3.43163 20.8795
rtibia 22.0524
rfoot -22.4185 -0.385461
rtoes -20.4537
lfemur -36.8598 -0.446561 -22.2513
ltibia 59.5756
lfoot -14.1222 7.4537
ltoes -45.2498
211
root 8.01642 20.4839 15.3181 -168.099 1.47112 178.508
lowerback 4.72274 1.51547 -3.01622
upperback 4.07415 2.18569 2.37129
thorax 1.35354 1.11568 4.06284
lowerneck -8.57995 0.117543 -4.04298
upperneck 25.0697 -1.61299 3.33506
head 9.32462 -1.3678 1.57432
rclavicle 9.54166e-015 -2.38542e-015
rhumerus -23.1177 -13.9508 -81.3734
rradius 35.6206
rwrist 2.88747
rhand -15.7084 -38.2128
rfingers 7.12502
rthumb 10.4814 -67.9315
lclavicle 9.54166e-015 -2.38542e-015
lhumerus -33.3607 20.1887 73.4274
lradius 14.7234
lwrist -32.2973
lhand -24.5815 -22.8583
lfingers 7.12502
lthumb 1.91577 7.11288
rfemur -22.9144 3.83683 21.2302
rtibia 21.3464
rfoot -22.6408 -0.977736
rtoes -20.6376
lfemur -39.278 -0.952915 -21.8774
ltibia 59.0479
lfoot -16.5297 7.02698
ltoes -46.3759
212
root 8.03755 20.4979 15.1197 -168.549 1.49794 178.639
lowerback 4.939 1.98822 -2.59984
upperback 3.93177 2.80967 1.97142
thorax 1.06381 1.44158 3.37448
lowerneck -8.285 -0.0337482 -2.99699
upperneck 25.6038 -2.1161 3.14424
head 9.46816 -1.56487 1.27389
rclavicle 1.94809e-014 3.33958e-014
rhumerus -23.0416 -13.3259 -82.475
rradius 37.2666
rwrist 1.32943
rhand -16.3197 -38.0615
rfingers 7.12502
rthumb 9.89176 -67.8092
lclavicle 1.94809e-014 3.33958e-014
lhumerus -33.55 19.4608 72.7544
lradius 14.66
lwrist -32.1599
lhand -24.5353 -22.1492
lfingers 7.12502
lthumb 1.96041 7.82156
rfemur -21.2669 4.25555 21.6253
rtibia 20.7815
rfoot -23.0971 -1.42544
rtoes -20.5473
lfemur -41.5249 -1.51359 -21.3595
ltibia 57.9227
lfoot -17.9549 6.84302
ltoes -46.5156
